<mxfile host="app.diagrams.net" modified="2023-03-30T09:04:45.484Z" agent="Mozilla/5.0 (Windows NT 10.0; Win64; x64) AppleWebKit/537.36 (KHTML, like Gecko) Chrome/111.0.0.0 Safari/537.36" etag="bPX-igQnXaLKrS-fLQWZ" version="21.1.1" type="device">
  <diagram name="Page-1" id="5f0bae14-7c28-e335-631c-24af17079c00">
    <mxGraphModel dx="1114" dy="608" grid="1" gridSize="10" guides="1" tooltips="1" connect="1" arrows="1" fold="1" page="1" pageScale="1" pageWidth="1100" pageHeight="850" background="none" math="0" shadow="0">
      <root>
        <mxCell id="0" />
        <mxCell id="1" parent="0" />
        <mxCell id="Wt6tEXDvKmHu9VFKAomc-40" value="" style="rounded=1;whiteSpace=wrap;html=1;fillColor=none;dashed=1;" parent="1" vertex="1">
          <mxGeometry x="370" y="20" width="610" height="170" as="geometry" />
        </mxCell>
        <mxCell id="Wt6tEXDvKmHu9VFKAomc-41" value="" style="rounded=1;whiteSpace=wrap;html=1;fillColor=none;dashed=1;" parent="1" vertex="1">
          <mxGeometry x="370" y="210" width="610" height="310" as="geometry" />
        </mxCell>
        <mxCell id="Wt6tEXDvKmHu9VFKAomc-42" value="" style="rounded=1;whiteSpace=wrap;html=1;fillColor=none;dashed=1;" parent="1" vertex="1">
          <mxGeometry x="370" y="540" width="610" height="170" as="geometry" />
        </mxCell>
        <mxCell id="Wt6tEXDvKmHu9VFKAomc-3" value="" style="shape=actor;whiteSpace=wrap;html=1;" parent="1" vertex="1">
          <mxGeometry x="10" y="275" width="40" height="60" as="geometry" />
        </mxCell>
        <mxCell id="Wt6tEXDvKmHu9VFKAomc-4" value="Клиенты" style="text;strokeColor=none;align=center;fillColor=none;html=1;verticalAlign=middle;whiteSpace=wrap;rounded=0;" parent="1" vertex="1">
          <mxGeometry y="345" width="60" height="30" as="geometry" />
        </mxCell>
        <mxCell id="Wt6tEXDvKmHu9VFKAomc-5" value="" style="endArrow=classic;html=1;rounded=0;" parent="1" edge="1">
          <mxGeometry width="50" height="50" relative="1" as="geometry">
            <mxPoint x="60" y="315" as="sourcePoint" />
            <mxPoint x="170" y="315" as="targetPoint" />
          </mxGeometry>
        </mxCell>
        <mxCell id="Wt6tEXDvKmHu9VFKAomc-6" value="http-запросы" style="text;strokeColor=none;align=center;fillColor=none;html=1;verticalAlign=middle;whiteSpace=wrap;rounded=0;" parent="1" vertex="1">
          <mxGeometry x="50" y="285" width="110" height="30" as="geometry" />
        </mxCell>
        <mxCell id="Wt6tEXDvKmHu9VFKAomc-7" value="" style="rounded=1;whiteSpace=wrap;html=1;" parent="1" vertex="1">
          <mxGeometry x="180" y="285" width="120" height="60" as="geometry" />
        </mxCell>
        <mxCell id="Wt6tEXDvKmHu9VFKAomc-8" value="" style="rounded=0;whiteSpace=wrap;html=1;" parent="1" vertex="1">
          <mxGeometry x="390" y="40" width="410" height="140" as="geometry" />
        </mxCell>
        <mxCell id="Wt6tEXDvKmHu9VFKAomc-9" value="" style="rounded=0;whiteSpace=wrap;html=1;" parent="1" vertex="1">
          <mxGeometry x="390" y="215" width="410" height="285" as="geometry" />
        </mxCell>
        <mxCell id="Wt6tEXDvKmHu9VFKAomc-10" value="" style="rounded=0;whiteSpace=wrap;html=1;" parent="1" vertex="1">
          <mxGeometry x="390" y="550" width="410" height="150" as="geometry" />
        </mxCell>
        <mxCell id="Wt6tEXDvKmHu9VFKAomc-12" value="" style="shape=datastore;whiteSpace=wrap;html=1;" parent="1" vertex="1">
          <mxGeometry x="890" y="70" width="60" height="60" as="geometry" />
        </mxCell>
        <mxCell id="Wt6tEXDvKmHu9VFKAomc-15" value="" style="shape=datastore;whiteSpace=wrap;html=1;" parent="1" vertex="1">
          <mxGeometry x="890" y="255" width="60" height="60" as="geometry" />
        </mxCell>
        <mxCell id="Wt6tEXDvKmHu9VFKAomc-16" value="" style="shape=datastore;whiteSpace=wrap;html=1;" parent="1" vertex="1">
          <mxGeometry x="900" y="580" width="60" height="60" as="geometry" />
        </mxCell>
        <mxCell id="Wt6tEXDvKmHu9VFKAomc-17" value="" style="endArrow=classic;html=1;rounded=0;" parent="1" edge="1">
          <mxGeometry width="50" height="50" relative="1" as="geometry">
            <mxPoint x="820" y="99.5" as="sourcePoint" />
            <mxPoint x="880" y="99.5" as="targetPoint" />
          </mxGeometry>
        </mxCell>
        <mxCell id="Wt6tEXDvKmHu9VFKAomc-18" value="" style="endArrow=classic;html=1;rounded=0;" parent="1" edge="1">
          <mxGeometry width="50" height="50" relative="1" as="geometry">
            <mxPoint x="820" y="280" as="sourcePoint" />
            <mxPoint x="880" y="280" as="targetPoint" />
          </mxGeometry>
        </mxCell>
        <mxCell id="Wt6tEXDvKmHu9VFKAomc-19" value="" style="endArrow=classic;html=1;rounded=0;" parent="1" edge="1">
          <mxGeometry width="50" height="50" relative="1" as="geometry">
            <mxPoint x="820" y="600" as="sourcePoint" />
            <mxPoint x="880" y="600" as="targetPoint" />
          </mxGeometry>
        </mxCell>
        <mxCell id="Wt6tEXDvKmHu9VFKAomc-20" value="" style="endArrow=classic;html=1;rounded=0;" parent="1" edge="1">
          <mxGeometry width="50" height="50" relative="1" as="geometry">
            <mxPoint x="880" y="110" as="sourcePoint" />
            <mxPoint x="820" y="110" as="targetPoint" />
          </mxGeometry>
        </mxCell>
        <mxCell id="Wt6tEXDvKmHu9VFKAomc-21" value="" style="endArrow=classic;html=1;rounded=0;" parent="1" edge="1">
          <mxGeometry width="50" height="50" relative="1" as="geometry">
            <mxPoint x="880" y="289.5" as="sourcePoint" />
            <mxPoint x="820" y="289.5" as="targetPoint" />
          </mxGeometry>
        </mxCell>
        <mxCell id="Wt6tEXDvKmHu9VFKAomc-22" value="" style="endArrow=classic;html=1;rounded=0;" parent="1" edge="1">
          <mxGeometry width="50" height="50" relative="1" as="geometry">
            <mxPoint x="880" y="610" as="sourcePoint" />
            <mxPoint x="820" y="610" as="targetPoint" />
          </mxGeometry>
        </mxCell>
        <mxCell id="Wt6tEXDvKmHu9VFKAomc-23" value="Users" style="text;align=center;html=1;verticalAlign=middle;whiteSpace=wrap;rounded=0;labelBorderColor=none;fillColor=#f5f5f5;fontColor=#333333;strokeColor=#666666;" parent="1" vertex="1">
          <mxGeometry x="420" y="50" width="360" height="20" as="geometry" />
        </mxCell>
        <mxCell id="Wt6tEXDvKmHu9VFKAomc-24" value="Posts (Публикации)" style="text;align=center;html=1;verticalAlign=middle;whiteSpace=wrap;rounded=0;labelBorderColor=none;fillColor=#f5f5f5;fontColor=#333333;strokeColor=#666666;" parent="1" vertex="1">
          <mxGeometry x="410" y="230" width="370" height="25" as="geometry" />
        </mxCell>
        <mxCell id="Wt6tEXDvKmHu9VFKAomc-25" value="Reviews (Комментарии, лайки)" style="text;align=center;html=1;verticalAlign=middle;whiteSpace=wrap;rounded=0;labelBorderColor=none;fillColor=#f5f5f5;fontColor=#333333;strokeColor=#666666;" parent="1" vertex="1">
          <mxGeometry x="410" y="565" width="370" height="25" as="geometry" />
        </mxCell>
        <mxCell id="Wt6tEXDvKmHu9VFKAomc-31" value="&lt;p style=&quot;font-size: 12px;&quot;&gt;&lt;/p&gt;&lt;ol style=&quot;font-size: 12px;&quot;&gt;&lt;li style=&quot;font-size: 12px;&quot;&gt;&lt;span style=&quot;background-color: rgb(255, 255, 255); color: rgb(51, 51, 51); font-family: &amp;quot;TT Norms Pro&amp;quot;, Arial, sans-serif; font-variant-ligatures: none; font-size: 12px;&quot;&gt;Регистрация новых пользователей.&lt;/span&gt;&lt;/li&gt;&lt;li style=&quot;font-size: 12px;&quot;&gt;&lt;span style=&quot;background-color: rgb(255, 255, 255); color: rgb(51, 51, 51); font-family: &amp;quot;TT Norms Pro&amp;quot;, Arial, sans-serif; font-variant-ligatures: none; font-size: 12px;&quot;&gt;Авторизация пользователей на&amp;nbsp;основе JWT.&lt;/span&gt;&lt;/li&gt;&lt;li style=&quot;font-size: 12px;&quot;&gt;&lt;span style=&quot;background-color: rgb(255, 255, 255); color: rgb(51, 51, 51); font-family: &amp;quot;TT Norms Pro&amp;quot;, Arial, sans-serif; font-variant-ligatures: none; font-size: 12px;&quot;&gt;&amp;nbsp;Получение детальной информации о&amp;nbsp;пользователе.&lt;/span&gt;&lt;/li&gt;&lt;li style=&quot;font-size: 12px;&quot;&gt;&lt;span style=&quot;background-color: rgb(255, 255, 255); color: rgb(51, 51, 51); font-family: &amp;quot;TT Norms Pro&amp;quot;, Arial, sans-serif; font-variant-ligatures: none; font-size: 12px;&quot;&gt;Смена пароля пользователя.&lt;/span&gt;&lt;/li&gt;&lt;/ol&gt;&lt;p style=&quot;font-size: 12px;&quot;&gt;&lt;/p&gt;" style="text;strokeColor=none;align=left;fillColor=none;html=1;verticalAlign=middle;whiteSpace=wrap;rounded=0;fontSize=12;" parent="1" vertex="1">
          <mxGeometry x="410" y="80" width="350" height="80" as="geometry" />
        </mxCell>
        <mxCell id="Wt6tEXDvKmHu9VFKAomc-32" value="&lt;p style=&quot;font-size: 12px;&quot;&gt;&lt;/p&gt;&lt;pre style=&quot;font-size: 12px;&quot;&gt;&lt;p style=&quot;font-size: 12px;&quot;&gt;&lt;/p&gt;&lt;p style=&quot;font-size: 12px;&quot;&gt;&lt;/p&gt;&lt;p style=&quot;font-size: 12px;&quot;&gt;&lt;/p&gt;&lt;ol style=&quot;font-size: 12px;&quot;&gt;&lt;li style=&quot;font-size: 12px;&quot;&gt;&lt;span style=&quot;background-color: initial; font-family: Helvetica; white-space: normal; font-size: 12px;&quot;&gt;Создание новых публикаций в&amp;nbsp;блоге разных видов: видео, текст, цитата, фото, ссылка.&lt;/span&gt;&lt;/li&gt;&lt;li style=&quot;font-size: 12px;&quot;&gt;&lt;span style=&quot;background-color: initial; font-family: Helvetica; white-space: normal; font-size: 12px;&quot;&gt;Просмотр детальной информации о&amp;nbsp;публикации.&lt;/span&gt;&lt;/li&gt;&lt;li style=&quot;font-size: 12px;&quot;&gt;&lt;span style=&quot;background-color: initial; font-family: Helvetica; white-space: normal; font-size: 12px;&quot;&gt;Редактирование публикаций в&amp;nbsp;блоге.&lt;/span&gt;&lt;/li&gt;&lt;li style=&quot;font-size: 12px;&quot;&gt;&lt;span style=&quot;background-color: initial; font-family: Helvetica; white-space: normal; font-size: 12px;&quot;&gt;Удаление публикаций в&amp;nbsp;блоге.&lt;/span&gt;&lt;/li&gt;&lt;li style=&quot;font-size: 12px;&quot;&gt;&lt;span style=&quot;background-color: initial; font-family: Helvetica; white-space: normal; font-size: 12px;&quot;&gt;Загрузка изображений для публикации в&amp;nbsp;блоге.&lt;/span&gt;&lt;/li&gt;&lt;li style=&quot;font-size: 12px;&quot;&gt;&lt;span style=&quot;background-color: initial; font-family: Helvetica; white-space: normal; font-size: 12px;&quot;&gt;Пагинация для публикаций.&lt;/span&gt;&lt;/li&gt;&lt;li style=&quot;font-size: 12px;&quot;&gt;&lt;span style=&quot;background-color: initial; font-family: Helvetica; white-space: normal; font-size: 12px;&quot;&gt;Репост публикаций.&lt;/span&gt;&lt;/li&gt;&lt;li style=&quot;font-size: 12px;&quot;&gt;&lt;span style=&quot;background-color: initial; font-family: Helvetica; white-space: normal; font-size: 12px;&quot;&gt;Получение списка публикаций.&lt;/span&gt;&lt;/li&gt;&lt;li style=&quot;font-size: 12px;&quot;&gt;&lt;span style=&quot;background-color: initial; font-family: Helvetica; white-space: normal; font-size: 12px;&quot;&gt;Получение списка публикаций с&amp;nbsp;применением сортировки: по&amp;nbsp;популярности, дате создания, по&amp;nbsp;количеству лайков, по&amp;nbsp;количеству комментариев.&lt;/span&gt;&lt;/li&gt;&lt;li style=&quot;font-size: 12px;&quot;&gt;&lt;span style=&quot;background-color: rgb(255, 255, 255); color: rgb(51, 51, 51); font-family: Helvetica; font-variant-ligatures: none; white-space: normal; font-size: 12px;&quot;&gt;Категоризация публикаций по&amp;nbsp;тегам.&lt;/span&gt;&lt;/li&gt;&lt;li style=&quot;font-size: 12px;&quot;&gt;&lt;span style=&quot;background-color: rgb(255, 255, 255); color: rgb(51, 51, 51); font-family: Helvetica; font-variant-ligatures: none; white-space: normal; font-size: 12px;&quot;&gt;Поиск публикаций по&amp;nbsp;названию.&lt;/span&gt;&lt;/li&gt;&lt;li style=&quot;font-size: 12px;&quot;&gt;&lt;span style=&quot;background-color: initial; font-family: Helvetica; white-space: normal; font-size: 12px;&quot;&gt;Лента пользователя&lt;/span&gt;&lt;/li&gt;&lt;/ol&gt;&lt;p style=&quot;font-size: 12px;&quot;&gt;&lt;/p&gt;&lt;p style=&quot;font-size: 12px;&quot;&gt;&lt;/p&gt;&lt;p style=&quot;font-size: 12px;&quot;&gt;&lt;/p&gt;&lt;/pre&gt;&lt;p style=&quot;font-size: 12px;&quot;&gt;&lt;/p&gt;&lt;div style=&quot;font-size: 12px;&quot;&gt;&lt;/div&gt;" style="text;strokeColor=none;align=left;fillColor=none;html=1;verticalAlign=middle;whiteSpace=wrap;rounded=0;fontSize=12;fontFamily=Helvetica;" parent="1" vertex="1">
          <mxGeometry x="400" y="360" width="390" height="30" as="geometry" />
        </mxCell>
        <mxCell id="Wt6tEXDvKmHu9VFKAomc-33" value="&lt;ol style=&quot;font-size: 13px;&quot;&gt;&lt;li style=&quot;border-color: var(--border-color); font-size: 13px;&quot;&gt;Комментирование публикаций в&amp;nbsp;блоге.&lt;/li&gt;&lt;li style=&quot;border-color: var(--border-color); font-size: 13px;&quot;&gt;&lt;span style=&quot;border-color: var(--border-color); background-color: initial; font-size: 13px;&quot;&gt;Лайки к&amp;nbsp;публикациям. Подсчёт количества лайков к&amp;nbsp;публикациям.&lt;/span&gt;&lt;/li&gt;&lt;/ol&gt;" style="text;strokeColor=none;align=left;fillColor=none;html=1;verticalAlign=middle;whiteSpace=wrap;rounded=0;fontSize=13;" parent="1" vertex="1">
          <mxGeometry x="390" y="630" width="420" height="30" as="geometry" />
        </mxCell>
        <mxCell id="Wt6tEXDvKmHu9VFKAomc-44" value="" style="rounded=0;whiteSpace=wrap;html=1;" parent="1" vertex="1">
          <mxGeometry x="390" y="759.49" width="410" height="120" as="geometry" />
        </mxCell>
        <mxCell id="Wt6tEXDvKmHu9VFKAomc-45" value="" style="shape=datastore;whiteSpace=wrap;html=1;" parent="1" vertex="1">
          <mxGeometry x="890" y="759.49" width="60" height="60" as="geometry" />
        </mxCell>
        <mxCell id="Wt6tEXDvKmHu9VFKAomc-46" value="" style="endArrow=classic;html=1;rounded=0;" parent="1" edge="1">
          <mxGeometry width="50" height="50" relative="1" as="geometry">
            <mxPoint x="820" y="788.99" as="sourcePoint" />
            <mxPoint x="880" y="788.99" as="targetPoint" />
          </mxGeometry>
        </mxCell>
        <mxCell id="Wt6tEXDvKmHu9VFKAomc-47" value="" style="endArrow=classic;html=1;rounded=0;" parent="1" edge="1">
          <mxGeometry width="50" height="50" relative="1" as="geometry">
            <mxPoint x="880" y="799.49" as="sourcePoint" />
            <mxPoint x="820" y="799.49" as="targetPoint" />
          </mxGeometry>
        </mxCell>
        <mxCell id="Wt6tEXDvKmHu9VFKAomc-48" value="Уведомления" style="text;align=center;html=1;verticalAlign=middle;whiteSpace=wrap;rounded=0;labelBorderColor=none;fillColor=#f5f5f5;fontColor=#333333;strokeColor=#666666;" parent="1" vertex="1">
          <mxGeometry x="410" y="774.49" width="370" height="25" as="geometry" />
        </mxCell>
        <mxCell id="Wt6tEXDvKmHu9VFKAomc-49" value="&lt;ol&gt;&lt;li&gt;Рассылка почтовых уведомлений на&amp;nbsp;email о&amp;nbsp;появлении новых публикаций.&lt;/li&gt;&lt;li&gt;Подписка на&amp;nbsp;обновления других пользователей.&lt;br&gt;&lt;/li&gt;&lt;/ol&gt;" style="text;strokeColor=none;align=left;fillColor=none;html=1;verticalAlign=middle;whiteSpace=wrap;rounded=0;" parent="1" vertex="1">
          <mxGeometry x="400" y="804.49" width="380" height="65" as="geometry" />
        </mxCell>
        <mxCell id="Wt6tEXDvKmHu9VFKAomc-50" value="" style="rounded=1;whiteSpace=wrap;html=1;fillColor=none;dashed=1;" parent="1" vertex="1">
          <mxGeometry x="370" y="751.99" width="610" height="137.5" as="geometry" />
        </mxCell>
        <mxCell id="Wt6tEXDvKmHu9VFKAomc-57" value="" style="curved=1;endArrow=classic;html=1;rounded=0;entryX=1.002;entryY=0.325;entryDx=0;entryDy=0;entryPerimeter=0;" parent="1" target="Wt6tEXDvKmHu9VFKAomc-41" edge="1">
          <mxGeometry width="50" height="50" relative="1" as="geometry">
            <mxPoint x="980" y="70" as="sourcePoint" />
            <mxPoint x="990" y="300" as="targetPoint" />
            <Array as="points">
              <mxPoint x="980" y="70" />
              <mxPoint x="1010" y="80" />
              <mxPoint x="1030" y="120" />
              <mxPoint x="1030" y="290" />
            </Array>
          </mxGeometry>
        </mxCell>
        <mxCell id="Wt6tEXDvKmHu9VFKAomc-58" value="" style="curved=1;endArrow=classic;html=1;rounded=0;entryX=1.002;entryY=0.325;entryDx=0;entryDy=0;entryPerimeter=0;" parent="1" edge="1">
          <mxGeometry width="50" height="50" relative="1" as="geometry">
            <mxPoint x="980" y="354" as="sourcePoint" />
            <mxPoint x="981" y="580" as="targetPoint" />
            <Array as="points">
              <mxPoint x="980" y="354" />
              <mxPoint x="1010" y="364" />
              <mxPoint x="1030" y="404" />
              <mxPoint x="1030" y="574" />
            </Array>
          </mxGeometry>
        </mxCell>
        <mxCell id="Wt6tEXDvKmHu9VFKAomc-61" value="" style="curved=1;endArrow=classic;html=1;rounded=0;entryX=1.003;entryY=0.665;entryDx=0;entryDy=0;entryPerimeter=0;" parent="1" target="Wt6tEXDvKmHu9VFKAomc-41" edge="1">
          <mxGeometry width="50" height="50" relative="1" as="geometry">
            <mxPoint x="980" y="831.99" as="sourcePoint" />
            <mxPoint x="981.8299999999999" y="720" as="targetPoint" />
            <Array as="points">
              <mxPoint x="1020" y="821.99" />
              <mxPoint x="1050" y="530" />
            </Array>
          </mxGeometry>
        </mxCell>
        <mxCell id="Wt6tEXDvKmHu9VFKAomc-62" value="" style="curved=1;endArrow=classic;html=1;rounded=0;entryX=1.005;entryY=0.807;entryDx=0;entryDy=0;entryPerimeter=0;" parent="1" target="Wt6tEXDvKmHu9VFKAomc-50" edge="1">
          <mxGeometry width="50" height="50" relative="1" as="geometry">
            <mxPoint x="980" y="40" as="sourcePoint" />
            <mxPoint x="1070" y="690" as="targetPoint" />
            <Array as="points">
              <mxPoint x="980" y="40" />
              <mxPoint x="1010" y="50" />
              <mxPoint x="1080" y="110" />
              <mxPoint x="1080" y="280" />
              <mxPoint x="1060" y="890" />
            </Array>
          </mxGeometry>
        </mxCell>
        <mxCell id="Wt6tEXDvKmHu9VFKAomc-64" value="API Gateway" style="text;strokeColor=none;align=center;fillColor=none;html=1;verticalAlign=middle;whiteSpace=wrap;rounded=0;" parent="1" vertex="1">
          <mxGeometry x="190" y="300" width="100" height="30" as="geometry" />
        </mxCell>
        <mxCell id="Wt6tEXDvKmHu9VFKAomc-66" value="" style="endArrow=classic;html=1;rounded=0;entryX=0;entryY=0.25;entryDx=0;entryDy=0;" parent="1" target="Wt6tEXDvKmHu9VFKAomc-41" edge="1">
          <mxGeometry width="50" height="50" relative="1" as="geometry">
            <mxPoint x="300" y="315" as="sourcePoint" />
            <mxPoint x="350" y="265" as="targetPoint" />
          </mxGeometry>
        </mxCell>
        <mxCell id="Wt6tEXDvKmHu9VFKAomc-67" value="" style="endArrow=classic;html=1;rounded=0;entryX=-0.002;entryY=0.118;entryDx=0;entryDy=0;entryPerimeter=0;" parent="1" target="Wt6tEXDvKmHu9VFKAomc-42" edge="1">
          <mxGeometry width="50" height="50" relative="1" as="geometry">
            <mxPoint x="300" y="330" as="sourcePoint" />
            <mxPoint x="370" y="291" as="targetPoint" />
          </mxGeometry>
        </mxCell>
        <mxCell id="Wt6tEXDvKmHu9VFKAomc-69" value="" style="endArrow=classic;html=1;rounded=0;entryX=0;entryY=0.25;entryDx=0;entryDy=0;exitX=0.75;exitY=1;exitDx=0;exitDy=0;" parent="1" target="Wt6tEXDvKmHu9VFKAomc-50" edge="1">
          <mxGeometry width="50" height="50" relative="1" as="geometry">
            <mxPoint x="250" y="345" as="sourcePoint" />
            <mxPoint x="350" y="708" as="targetPoint" />
          </mxGeometry>
        </mxCell>
        <mxCell id="Wt6tEXDvKmHu9VFKAomc-70" value="" style="endArrow=none;html=1;rounded=0;entryX=-0.005;entryY=0.594;entryDx=0;entryDy=0;entryPerimeter=0;jumpStyle=none;" parent="1" target="Wt6tEXDvKmHu9VFKAomc-40" edge="1">
          <mxGeometry width="50" height="50" relative="1" as="geometry">
            <mxPoint x="260" y="285" as="sourcePoint" />
            <mxPoint x="310" y="235" as="targetPoint" />
          </mxGeometry>
        </mxCell>
      </root>
    </mxGraphModel>
  </diagram>
</mxfile>
